<svg height="512px" viewBox="-38 0 512 512.00002" width="512px" xmlns="http://www.w3.org/2000/svg"><path d="m380.503906 157.605469c-27.699218 0-61.503906 0-89.730468 0l-55.492188 210.839843c-1.308594 4.972657 2.441406 9.839844 7.582031 9.839844h185.546875c5.144532 0 8.894532-4.867187 7.585938-9.839844zm0 0" fill="#c94250"/><g fill="#ffb69e"><path d="m402.847656 12.828125c-8.640625-.164063-15.707031 7.175781-15.707031 15.8125v75.605469l-33.367187 37.589844s.746093.035156-49.335938 0c-15.640625 0-29.34375 10.515624-33.324219 25.636718l-31.464843 119.488282c-2.167969 8.234374 2.746093 16.664062 10.980468 18.832031 8.230469 2.167969 16.660156-2.75 18.828125-10.980469l31.464844-119.488281c.421875-1.59375 1.867187-2.707031 3.515625-2.707031h56.296875c4.289063 0 8.378906-1.832032 11.234375-5.035157l42.117188-47.261719c2.5-2.820312 3.878906-6.457031 3.878906-10.222656v-81.859375c0-8.414062-6.742188-15.253906-15.117188-15.410156zm0 0"/><path d="m313.078125 460.828125c-10.015625 0-18.132813-8.121094-18.132813-18.132813v-157.367187c0-10.015625 8.117188-18.132813 18.132813-18.132813s18.132813 8.117188 18.132813 18.132813v157.363281c0 10.015625-8.117188 18.136719-18.132813 18.136719zm0 0"/><path d="m295.664062 383.683594c-2.792968-9.617188 2.738282-19.675782 12.359376-22.472656l42.601562-12.371094-23.019531-56.691406c-3.765625-9.277344.703125-19.851563 9.980469-23.621094 9.277343-3.765625 19.855468.699218 23.625 9.980468l30.582031 75.316407c1.929687 4.757812 1.753906 10.109375-.484375 14.730469-2.238282 4.617187-6.332032 8.074218-11.261719 9.503906l-61.910156 17.980468c-9.597657 2.789063-19.671875-2.714843-22.472657-12.355468zm0 0"/></g><path d="m387.140625 28.640625v75.609375l-33.363281 37.585938s.742187.035156-49.339844 0c-15.636719 0-29.339844 10.515624-33.324219 25.636718l-31.464843 119.492188 29.808593 7.847656 19.511719-74.09375-17.769531 107.9375c-.515625 2.777344.183593 5.648438 1.90625 7.832031 1.722656 2.183594 4.289062 3.457031 7 3.457031h111.78125c2.710937 0 5.277343-1.265624 7.003906-3.449218 1.722656-2.1875 2.421875-5.0625 1.90625-7.839844l-26.882813-163.257812 40.171876-45.078126c2.5-2.816406 3.878906-6.453124 3.878906-10.222656v-81.859375zm0 0" fill="#ff6473"/><path d="m368.550781 95.957031c0-18.78125-14.574219-34.003906-32.554687-34.003906-17.976563 0-32.554688 15.222656-32.554688 34.003906 0 18.777344 14.578125 34 32.554688 34 17.980468 0 32.554687-15.222656 32.554687-34zm0 0" fill="#ffb69e"/><path d="m318.355469 206.9375 14.566406-25.425781c1.363281-2.375 4.789063-2.375 6.148437 0l14.566407 25.425781c1.351562 2.359375-.351563 5.300781-3.074219 5.300781h-29.132812c-2.722657 0-4.425782-2.941406-3.074219-5.300781zm0 0" fill="#fff"/><path d="m147.847656 502.316406c0-5.34375-20.0625-9.679687-44.8125-9.679687s-44.8125 4.335937-44.8125 9.679687c0 5.347656 20.0625 9.683594 44.8125 9.683594s44.8125-4.335938 44.8125-9.683594zm0 0" fill="#82878c"/><path d="m369.558594 502.316406c0-5.34375-20.0625-9.679687-44.8125-9.679687s-44.8125 4.335937-44.8125 9.679687c0 5.347656 20.0625 9.683594 44.8125 9.683594s44.8125-4.335938 44.8125-9.683594zm0 0" fill="#82878c"/><path d="m132.191406 113.714844c0 18.207031-14.757812 32.964844-32.960937 32.964844s-32.960938-14.757813-32.960938-32.964844c0-18.203125 14.757813-32.960938 32.960938-32.960938s32.960937 14.757813 32.960937 32.960938zm0 0" fill="#ffb69e"/><path d="m139.820312 186.917969 49.363282-32.257813c3.636718-2.378906 6.09375-6.191406 6.753906-10.488281l9.953125-64.632813c1.285156-8.355468-4.445313-16.175781-12.800781-17.460937-8.363282-1.285156-16.175782 4.445313-17.460938 12.800781l-8.910156 57.882813-43.648438 28.523437c-7.078124 4.628906-9.066406 14.113282-4.441406 21.191406 4.609375 7.054688 14.089844 9.082032 21.191406 4.441407zm0 0" fill="#ffb69e"/><path d="m74.730469 195.03125c8.335937-1.402344 13.964843-9.292969 12.5625-17.632812l-27.613281-164.621094c-1.398438-8.335938-9.292969-13.960938-17.632813-12.5625-8.335937 1.398437-13.964844 9.289062-12.5625 17.628906l27.613281 164.621094c1.394532 8.316406 9.273438 13.96875 17.632813 12.566406zm0 0" fill="#ffb69e"/><path d="m6.691406 407.105469h134.484375v-248.832031h-85.601562l-55.402344 240.640624c-.964844 4.191407 2.21875 8.191407 6.519531 8.191407zm0 0" fill="#fa503c"/><path d="m138.59375 435.320312 19.839844-81.050781c.871094-3.558593.699218-7.289062-.492188-10.75l-21.113281-61.316406c-3.433594-9.964844-14.292969-15.261719-24.257813-11.832031-9.96875 3.433594-15.261718 14.292968-11.832031 24.257812l19.285157 56.011719-18.503907 75.605469c-2.507812 10.238281 3.761719 20.566406 13.996094 23.074218 10.238281 2.503907 20.570313-3.761718 23.078125-14zm0 0" fill="#5f6e9b"/><path d="m76.023438 466.40625c10.539062 0 19.085937-8.542969 19.085937-19.082031v-152.546875c0-10.539063-8.546875-19.082032-19.085937-19.082032-10.539063 0-19.085938 8.542969-19.085938 19.082032v152.542968c0 10.542969 8.546875 19.085938 19.085938 19.085938zm0 0" fill="#414b82"/><path d="m59.679688 12.777344 24.40625 145.496094h43.59375l39.035156-25.511719 8.910156-57.882813 30.261719 4.660156-9.949219 64.632813c-.660156 4.296875-3.117188 8.109375-6.757812 10.488281l-48.003907 31.371094v108.746094h-84.238281v-113.265625l-27.453125-163.667969zm0 0" fill="#64afff"/><path d="m117.628906 201.621094c0 10.160156-8.238281 18.398437-18.398437 18.398437-10.160157 0-18.398438-8.238281-18.398438-18.398437s8.238281-18.398438 18.398438-18.398438c10.160156 0 18.398437 8.238282 18.398437 18.398438zm0 0" fill="#fff"/></svg>